<?xml version="1.0" standalone="no"?>
<!DOCTYPE svg PUBLIC "-//W3C//DTD SVG 20010904//EN"
 "http://www.w3.org/TR/2001/REC-SVG-20010904/DTD/svg10.dtd">
<svg version="1.0" xmlns="http://www.w3.org/2000/svg"
 width="97.000000pt" height="75.000000pt" viewBox="0 0 927.000000 860.000000"
 preserveAspectRatio="xMidYMid meet">

<g transform="translate(0.000000,860.000000) scale(0.100000,-0.100000)"
fill="#000000" stroke="none">
<path d="M4470 8262 c-282 -95 -556 -429 -881 -1077 -50 -99 -100 -190 -112
-203 -51 -55 -270 -188 -572 -347 -219 -116 -520 -292 -601 -352 -33 -25 -59
-29 -70 -12 -3 6 -29 25 -58 43 -257 164 -602 83 -892 -208 -113 -114 -192
-233 -299 -451 -204 -416 -320 -831 -332 -1185 -6 -186 4 -262 59 -430 76
-235 188 -372 353 -431 45 -17 85 -22 162 -23 l102 -1 55 -112 c307 -626 754
-1066 1436 -1412 261 -133 483 -212 846 -301 250 -62 352 -94 552 -179 275
-116 721 -347 1187 -616 625 -361 743 -428 872 -499 76 -42 179 -93 228 -114
82 -34 98 -37 180 -36 206 2 370 95 448 257 42 86 57 152 57 251 0 263 -134
534 -349 704 -92 73 -194 160 -311 267 -31 27 -103 93 -160 145 -170 153 -382
364 -371 368 25 8 509 -145 859 -273 346 -125 440 -161 692 -265 259 -106 350
-132 480 -133 172 -1 308 50 415 157 353 354 228 1088 -247 1446 -89 68 -174
112 -353 188 -66 28 -241 106 -390 174 -148 68 -386 173 -527 234 -141 60
-256 110 -254 111 1 1 136 9 301 18 309 17 798 24 1175 15 213 -5 216 -4 296
23 193 65 323 201 379 397 27 92 25 277 -3 382 -50 183 -129 324 -263 463
-160 166 -370 282 -602 331 -122 25 -245 33 -757 49 -594 18 -699 22 -985 41
-559 36 -1019 100 -1473 205 -159 37 -205 52 -191 62 209 163 427 369 534 506
146 186 248 391 286 576 72 348 -58 706 -376 1029 -123 126 -174 168 -249 202
-78 35 -197 42 -276 16z m185 -217 c48 -19 232 -201 312 -305 74 -98 153 -254
179 -355 26 -101 24 -275 -4 -378 -84 -309 -337 -607 -823 -970 -64 -48 -121
-99 -127 -112 -21 -46 -15 -84 21 -119 27 -27 57 -39 197 -79 415 -117 842
-194 1367 -247 394 -39 665 -54 1373 -75 547 -16 679 -25 792 -54 276 -71 491
-237 604 -466 55 -113 77 -198 77 -300 0 -185 -76 -305 -232 -367 -53 -21 -67
-22 -236 -18 -332 9 -917 2 -1205 -14 -286 -16 -534 -27 -990 -46 -262 -11
-406 -27 -590 -65 -115 -24 -387 -99 -398 -109 -3 -3 157 -6 355 -6 381 0 632
-12 750 -35 136 -27 609 -219 1253 -510 223 -100 450 -202 505 -225 368 -156
586 -471 586 -848 1 -179 -44 -306 -136 -391 -65 -60 -124 -84 -221 -89 -111
-6 -190 16 -474 131 -436 177 -805 311 -1200 436 -643 202 -961 263 -1400 264
-251 0 -497 -26 -440 -46 8 -3 224 -51 480 -107 280 -61 486 -110 517 -125 42
-19 108 -80 340 -313 286 -287 498 -484 708 -657 220 -180 285 -263 339 -427
35 -108 43 -207 22 -287 -30 -116 -99 -172 -236 -194 l-69 -10 -143 71 c-140
69 -364 195 -818 459 -389 226 -706 399 -990 542 -440 219 -628 293 -944 366
-350 82 -552 153 -816 285 -466 233 -807 505 -1074 855 -180 237 -367 598
-401 778 -59 310 64 923 288 1435 97 221 181 350 320 490 207 211 424 354
1057 697 277 150 436 252 506 327 39 41 76 102 158 265 354 699 658 1034 861
948z m-2681 -1879 c26 -8 58 -22 72 -31 l25 -16 -118 -117 c-170 -168 -240
-265 -353 -492 -155 -311 -293 -756 -346 -1120 -20 -133 -26 -443 -11 -532 l8
-48 -51 0 c-129 0 -224 114 -296 355 -24 80 -27 107 -28 245 -1 85 2 175 6
200 27 168 59 308 106 460 103 329 277 685 416 846 53 62 162 148 246 193 125
67 229 85 324 57z"/>
<path d="M2073 5330 c-68 -41 -62 -149 10 -183 79 -38 415 -110 769 -167 180
-29 199 -30 231 -16 84 34 86 154 5 197 -10 5 -117 25 -240 44 -256 41 -370
63 -560 111 -159 40 -172 40 -215 14z"/>
<path d="M1952 4737 c-73 -41 -73 -155 0 -193 38 -20 332 -135 472 -185 278
-100 830 -269 879 -269 62 0 113 65 101 129 -13 65 -42 78 -419 191 -292 88
-532 170 -748 256 -114 46 -220 84 -235 84 -15 -1 -37 -6 -50 -13z"/>
<path d="M1852 4224 c-63 -44 -65 -121 -4 -176 54 -49 263 -196 384 -271 182
-112 491 -267 533 -267 54 0 105 52 105 108 0 62 -27 85 -204 174 -245 122
-405 221 -620 381 -76 57 -95 67 -130 67 -23 0 -52 -7 -64 -16z"/>
</g>
</svg>
